<svg width="363" height="44" viewBox="0 0 363 44" fill="none" xmlns="http://www.w3.org/2000/svg">
<path d="M11.511 34H0.395996V32.29C0.875996 31.99 1.386 31.735 1.926 31.525C2.496 31.285 3.051 31.105 3.591 30.985L15.201 1.96H18.531L29.826 30.985C30.426 31.105 31.026 31.285 31.626 31.525C32.226 31.735 32.751 31.99 33.201 32.29V34H19.116V32.29C19.686 32.02 20.301 31.765 20.961 31.525C21.621 31.285 22.251 31.105 22.851 30.985L20.241 23.83H10.251L7.596 30.985C8.976 31.165 10.281 31.6 11.511 32.29V34ZM11.331 20.905H19.296L16.371 12.31L15.516 8.44H15.426L14.436 12.4L11.331 20.905ZM31.4615 14.335C31.0115 14.215 30.5915 14.065 30.2015 13.885C29.8415 13.705 29.4665 13.495 29.0765 13.255V11.5H40.9115V13.21C40.2815 13.63 39.4265 14.005 38.3465 14.335L42.8915 25.63L43.6565 28.51H43.7465L44.4665 25.585L47.9765 14.335C47.0765 14.155 46.2515 13.795 45.5015 13.255V11.5H54.1865V13.255C53.5565 13.675 52.7015 14.035 51.6215 14.335L44.2865 34C43.5665 35.92 42.8465 37.48 42.1265 38.68C41.4065 39.91 40.6865 40.885 39.9665 41.605C39.2465 42.325 38.5265 42.82 37.8065 43.09C37.0865 43.39 36.3665 43.585 35.6465 43.675C35.3465 43.405 35.0765 43.06 34.8365 42.64C34.5965 42.25 34.3865 41.815 34.2065 41.335C34.0265 40.885 33.8765 40.42 33.7565 39.94C33.6365 39.46 33.5615 39.01 33.5315 38.59L34.1165 37.51H39.6065C39.8765 37.09 40.1015 36.64 40.2815 36.16C40.4915 35.68 40.7315 34.96 41.0015 34L31.4615 14.335ZM54.2617 22.75C54.2617 20.92 54.5317 19.285 55.0717 17.845C55.6417 16.375 56.4367 15.13 57.4567 14.11C58.5067 13.09 59.7667 12.31 61.2367 11.77C62.7067 11.23 64.3717 10.96 66.2317 10.96C68.3317 10.96 70.1317 11.26 71.6317 11.86C73.1617 12.43 74.4067 13.24 75.3667 14.29C76.3567 15.31 77.0767 16.555 77.5267 18.025C77.9767 19.465 78.2017 21.04 78.2017 22.75C78.2017 24.58 77.9317 26.23 77.3917 27.7C76.8517 29.14 76.0567 30.37 75.0067 31.39C73.9867 32.41 72.7267 33.19 71.2267 33.73C69.7567 34.27 68.0917 34.54 66.2317 34.54C64.1917 34.54 62.4217 34.255 60.9217 33.685C59.4217 33.085 58.1767 32.275 57.1867 31.255C56.1967 30.205 55.4617 28.96 54.9817 27.52C54.5017 26.05 54.2617 24.46 54.2617 22.75ZM61.2367 22.75C61.2367 24.1 61.3117 25.345 61.4617 26.485C61.6417 27.595 61.9417 28.54 62.3617 29.32C62.7817 30.1 63.3517 30.715 64.0717 31.165C64.7917 31.585 65.7217 31.795 66.8617 31.795C67.5217 31.795 68.1217 31.645 68.6617 31.345C69.2017 31.015 69.6667 30.505 70.0567 29.815C70.4467 29.095 70.7317 28.165 70.9117 27.025C71.1217 25.855 71.2267 24.43 71.2267 22.75C71.2267 21.37 71.1367 20.125 70.9567 19.015C70.8067 17.905 70.5217 16.96 70.1017 16.18C69.7117 15.4 69.1717 14.8 68.4817 14.38C67.7917 13.93 66.9217 13.705 65.8717 13.705C65.0917 13.705 64.4167 13.87 63.8467 14.2C63.2767 14.5 62.7967 15.01 62.4067 15.73C62.0167 16.42 61.7167 17.35 61.5067 18.52C61.3267 19.66 61.2367 21.07 61.2367 22.75ZM106.315 34H95.0654V32.245C95.3654 32.065 95.6954 31.885 96.0555 31.705C96.4454 31.495 96.8654 31.315 97.3155 31.165V22.21C97.3155 20.83 97.2705 19.66 97.1805 18.7C97.1205 17.74 96.9705 16.96 96.7304 16.36C96.4905 15.73 96.1605 15.28 95.7405 15.01C95.3205 14.71 94.7805 14.56 94.1204 14.56C93.1604 14.56 92.3204 14.935 91.6005 15.685C90.9105 16.405 90.4004 17.365 90.0704 18.565V31.165C90.8804 31.405 91.6305 31.765 92.3205 32.245V34H80.6204V32.245C81.0404 32.035 81.5054 31.84 82.0154 31.66C82.5254 31.48 83.0504 31.315 83.5904 31.165V14.695L80.6204 14.335V12.58C81.1004 12.37 81.6854 12.175 82.3754 11.995C83.0954 11.815 83.8304 11.665 84.5804 11.545C85.3304 11.395 86.0504 11.275 86.7404 11.185C87.4604 11.095 88.0604 11.02 88.5404 10.96H90.0704V16.045H90.1154C90.5954 14.635 91.4354 13.435 92.6355 12.445C93.8655 11.455 95.3355 10.96 97.0454 10.96C97.7655 10.96 98.4705 11.035 99.1605 11.185C99.8505 11.335 100.48 11.62 101.05 12.04C101.65 12.43 102.16 12.985 102.58 13.705C103 14.425 103.3 15.355 103.48 16.495C104.02 14.845 104.92 13.51 106.18 12.49C107.44 11.47 108.97 10.96 110.77 10.96C111.88 10.96 112.855 11.11 113.695 11.41C114.565 11.68 115.285 12.175 115.855 12.895C116.455 13.615 116.905 14.59 117.205 15.82C117.505 17.05 117.655 18.61 117.655 20.5V31.165C118.675 31.345 119.665 31.705 120.625 32.245V34H108.925V32.245C109.615 31.795 110.365 31.435 111.175 31.165V21.4C111.175 19.06 110.95 17.335 110.5 16.225C110.08 15.115 109.15 14.56 107.71 14.56C106.63 14.56 105.775 14.965 105.145 15.775C104.545 16.585 104.095 17.665 103.795 19.015V31.165C104.305 31.315 104.755 31.48 105.145 31.66C105.565 31.84 105.955 32.035 106.315 32.245V34ZM134.973 34H122.553V32.245C123.003 32.005 123.468 31.81 123.948 31.66C124.428 31.48 124.953 31.315 125.523 31.165V14.695L122.553 14.335V12.58C123.003 12.4 123.558 12.22 124.218 12.04C124.908 11.86 125.628 11.71 126.378 11.59C127.128 11.44 127.863 11.32 128.583 11.23C129.303 11.11 129.933 11.02 130.473 10.96H132.003V31.165C132.603 31.315 133.143 31.48 133.623 31.66C134.103 31.81 134.553 32.005 134.973 32.245V34ZM124.758 4.12C124.758 3.07 125.118 2.245 125.838 1.645C126.558 1.045 127.488 0.744999 128.628 0.744999C129.768 0.744999 130.698 1.045 131.418 1.645C132.138 2.245 132.498 3.07 132.498 4.12C132.498 5.14 132.138 5.95 131.418 6.55C130.698 7.15 129.768 7.45 128.628 7.45C127.488 7.45 126.558 7.15 125.838 6.55C125.118 5.95 124.758 5.14 124.758 4.12ZM152.839 29.545C152.689 30.205 152.419 30.835 152.029 31.435C151.639 32.035 151.174 32.575 150.634 33.055C150.094 33.505 149.479 33.865 148.789 34.135C148.099 34.405 147.364 34.54 146.584 34.54C143.614 34.54 141.349 33.61 139.789 31.75C138.259 29.86 137.494 26.98 137.494 23.11C137.494 21.13 137.764 19.405 138.304 17.935C138.844 16.435 139.594 15.175 140.554 14.155C141.544 13.135 142.729 12.37 144.109 11.86C145.489 11.35 147.019 11.095 148.699 11.095C149.239 11.095 149.689 11.11 150.049 11.14C150.439 11.17 150.784 11.215 151.084 11.275C151.414 11.305 151.714 11.38 151.984 11.5C152.284 11.59 152.614 11.695 152.974 11.815V3.895L149.554 3.535V1.78C149.974 1.6 150.544 1.435 151.264 1.285C152.014 1.135 152.794 0.999997 153.604 0.879997C154.414 0.729997 155.209 0.594997 155.989 0.474997C156.769 0.354999 157.414 0.249999 157.924 0.159998H159.454V30.805L162.424 31.165V32.74C162.004 32.95 161.464 33.145 160.804 33.325C160.144 33.505 159.454 33.67 158.734 33.82C158.014 33.97 157.309 34.09 156.619 34.18C155.959 34.3 155.404 34.39 154.954 34.45H153.424L153.019 29.545H152.839ZM148.744 30.94C149.794 30.94 150.679 30.61 151.399 29.95C152.119 29.29 152.644 28.165 152.974 26.575V14.47C152.584 14.23 152.089 14.035 151.489 13.885C150.919 13.735 150.199 13.66 149.329 13.66C147.589 13.66 146.344 14.455 145.594 16.045C144.844 17.605 144.469 19.885 144.469 22.885C144.469 25.315 144.799 27.265 145.459 28.735C146.119 30.205 147.214 30.94 148.744 30.94ZM184.908 30.22C184.668 30.73 184.278 31.255 183.738 31.795C183.228 32.305 182.583 32.77 181.803 33.19C181.053 33.58 180.168 33.895 179.148 34.135C178.158 34.405 177.078 34.54 175.908 34.54C174.048 34.54 172.398 34.27 170.958 33.73C169.518 33.16 168.318 32.365 167.358 31.345C166.398 30.295 165.663 29.05 165.153 27.61C164.673 26.17 164.433 24.55 164.433 22.75C164.433 18.91 165.438 15.985 167.448 13.975C169.458 11.965 172.248 10.96 175.818 10.96C177.348 10.96 178.773 11.17 180.093 11.59C181.443 12.01 182.553 12.7 183.423 13.66C184.323 14.62 184.938 15.88 185.268 17.44C185.628 19 185.613 20.905 185.223 23.155H171.408C171.438 25.525 172.038 27.415 173.208 28.825C174.408 30.235 176.163 30.94 178.473 30.94C179.463 30.94 180.483 30.79 181.533 30.49C182.613 30.19 183.453 29.8 184.053 29.32L184.908 30.22ZM175.638 13.525C175.038 13.525 174.498 13.63 174.018 13.84C173.568 14.05 173.163 14.44 172.803 15.01C172.473 15.55 172.203 16.3 171.993 17.26C171.783 18.19 171.633 19.375 171.543 20.815H178.788C178.998 18.475 178.863 16.675 178.383 15.415C177.903 14.155 176.988 13.525 175.638 13.525ZM214.726 34H200.686V32.29C201.886 31.63 203.101 31.195 204.331 30.985V5.515C203.731 5.425 203.101 5.26 202.441 5.02C201.781 4.78 201.196 4.51 200.686 4.21V2.5H214.726V4.21C214.186 4.54 213.586 4.825 212.926 5.065C212.296 5.275 211.681 5.425 211.081 5.515V30.985C211.681 31.105 212.296 31.27 212.926 31.48C213.586 31.69 214.186 31.96 214.726 32.29V34ZM219.095 3.895L215.675 3.535V1.78C216.125 1.6 216.71 1.42 217.43 1.24C218.18 1.06 218.945 0.909999 219.725 0.789998C220.535 0.639999 221.315 0.519998 222.065 0.429998C222.845 0.309997 223.505 0.219998 224.045 0.159998H225.575V15.73H225.665C226.265 14.23 227.18 13.06 228.41 12.22C229.64 11.38 231.095 10.96 232.775 10.96C235.415 10.96 237.47 11.875 238.94 13.705C240.41 15.535 241.145 18.31 241.145 22.03C241.145 26.14 240.05 29.23 237.86 31.3C235.7 33.37 232.52 34.405 228.32 34.405C227.57 34.405 226.73 34.345 225.8 34.225C224.87 34.135 223.97 34.015 223.1 33.865C222.23 33.715 221.42 33.535 220.67 33.325C219.95 33.115 219.425 32.905 219.095 32.695V3.895ZM229.85 14.56C228.71 14.56 227.795 14.98 227.105 15.82C226.415 16.63 225.905 17.665 225.575 18.925V30.85C225.995 31.15 226.505 31.39 227.105 31.57C227.735 31.75 228.44 31.84 229.22 31.84C230.93 31.84 232.175 31.075 232.955 29.545C233.765 28.015 234.17 25.615 234.17 22.345C234.17 19.975 233.84 18.085 233.18 16.675C232.55 15.265 231.44 14.56 229.85 14.56ZM256.35 34H243.93V32.245C244.38 32.005 244.845 31.81 245.325 31.66C245.805 31.48 246.33 31.315 246.9 31.165V14.695L243.93 14.335V12.58C244.38 12.4 244.935 12.22 245.595 12.04C246.285 11.86 247.005 11.71 247.755 11.59C248.505 11.44 249.24 11.32 249.96 11.23C250.68 11.11 251.31 11.02 251.85 10.96H253.38V31.165C253.98 31.315 254.52 31.48 255 31.66C255.48 31.81 255.93 32.005 256.35 32.245V34ZM246.135 4.12C246.135 3.07 246.495 2.245 247.215 1.645C247.935 1.045 248.865 0.744999 250.005 0.744999C251.145 0.744999 252.075 1.045 252.795 1.645C253.515 2.245 253.875 3.07 253.875 4.12C253.875 5.14 253.515 5.95 252.795 6.55C252.075 7.15 251.145 7.45 250.005 7.45C248.865 7.45 247.935 7.15 247.215 6.55C246.495 5.95 246.135 5.14 246.135 4.12ZM274.216 29.545C274.066 30.205 273.796 30.835 273.406 31.435C273.016 32.035 272.551 32.575 272.011 33.055C271.471 33.505 270.856 33.865 270.166 34.135C269.476 34.405 268.741 34.54 267.961 34.54C264.991 34.54 262.726 33.61 261.166 31.75C259.636 29.86 258.871 26.98 258.871 23.11C258.871 21.13 259.141 19.405 259.681 17.935C260.221 16.435 260.971 15.175 261.931 14.155C262.921 13.135 264.106 12.37 265.486 11.86C266.866 11.35 268.396 11.095 270.076 11.095C270.616 11.095 271.066 11.11 271.426 11.14C271.816 11.17 272.161 11.215 272.461 11.275C272.791 11.305 273.091 11.38 273.361 11.5C273.661 11.59 273.991 11.695 274.351 11.815V3.895L270.931 3.535V1.78C271.351 1.6 271.921 1.435 272.641 1.285C273.391 1.135 274.171 0.999997 274.981 0.879997C275.791 0.729997 276.586 0.594997 277.366 0.474997C278.146 0.354999 278.791 0.249999 279.301 0.159998H280.831V30.805L283.801 31.165V32.74C283.381 32.95 282.841 33.145 282.181 33.325C281.521 33.505 280.831 33.67 280.111 33.82C279.391 33.97 278.686 34.09 277.996 34.18C277.336 34.3 276.781 34.39 276.331 34.45H274.801L274.396 29.545H274.216ZM270.121 30.94C271.171 30.94 272.056 30.61 272.776 29.95C273.496 29.29 274.021 28.165 274.351 26.575V14.47C273.961 14.23 273.466 14.035 272.866 13.885C272.296 13.735 271.576 13.66 270.706 13.66C268.966 13.66 267.721 14.455 266.971 16.045C266.221 17.605 265.846 19.885 265.846 22.885C265.846 25.315 266.176 27.265 266.836 28.735C267.496 30.205 268.591 30.94 270.121 30.94ZM305.565 27.475C305.565 28.135 305.565 28.705 305.565 29.185C305.595 29.665 305.64 30.175 305.7 30.715L308.805 31.165V32.74C308.445 32.92 307.95 33.1 307.32 33.28C306.72 33.46 306.075 33.64 305.385 33.82C304.725 33.97 304.065 34.09 303.405 34.18C302.745 34.3 302.16 34.39 301.65 34.45H300.12C299.82 33.76 299.64 33.07 299.58 32.38C299.52 31.69 299.475 30.85 299.445 29.86H299.22C299.07 30.46 298.815 31.045 298.455 31.615C298.095 32.155 297.63 32.65 297.06 33.1C296.52 33.52 295.875 33.865 295.125 34.135C294.375 34.405 293.535 34.54 292.605 34.54C291.615 34.54 290.7 34.39 289.86 34.09C289.02 33.79 288.285 33.37 287.655 32.83C287.025 32.29 286.53 31.645 286.17 30.895C285.81 30.115 285.63 29.245 285.63 28.285C285.63 26.935 285.885 25.825 286.395 24.955C286.905 24.085 287.7 23.38 288.78 22.84C289.89 22.27 291.3 21.85 293.01 21.58C294.75 21.31 296.85 21.115 299.31 20.995C299.55 18.415 299.445 16.525 298.995 15.325C298.545 14.125 297.57 13.525 296.07 13.525C295.14 13.525 294.285 13.675 293.505 13.975L291.39 19.375H289.41C289.17 19.015 288.93 18.61 288.69 18.16C288.48 17.68 288.27 17.185 288.06 16.675C287.88 16.135 287.715 15.595 287.565 15.055C287.445 14.515 287.355 13.99 287.295 13.48C288.435 12.7 289.905 12.085 291.705 11.635C293.505 11.185 295.41 10.96 297.42 10.96C299.13 10.96 300.525 11.155 301.605 11.545C302.685 11.905 303.525 12.415 304.125 13.075C304.755 13.705 305.19 14.455 305.43 15.325C305.67 16.195 305.79 17.125 305.79 18.115C305.79 19.915 305.745 21.55 305.655 23.02C305.595 24.46 305.565 25.945 305.565 27.475ZM295.44 30.94C296.07 30.94 296.61 30.82 297.06 30.58C297.51 30.34 297.885 30.055 298.185 29.725C298.515 29.395 298.755 29.035 298.905 28.645C299.085 28.255 299.22 27.91 299.31 27.61V23.11C297.9 23.14 296.745 23.23 295.845 23.38C294.945 23.53 294.24 23.785 293.73 24.145C293.22 24.475 292.86 24.91 292.65 25.45C292.47 25.96 292.38 26.59 292.38 27.34C292.38 28.48 292.65 29.365 293.19 29.995C293.73 30.625 294.48 30.94 295.44 30.94ZM322.828 43H310.408V41.245C311.428 40.765 312.418 40.405 313.378 40.165V14.695L310.408 14.335V12.58C310.888 12.37 311.473 12.175 312.163 11.995C312.883 11.815 313.618 11.665 314.368 11.545C315.118 11.395 315.838 11.275 316.528 11.185C317.248 11.095 317.848 11.02 318.328 10.96H319.858V16H319.903C320.413 14.56 321.208 13.36 322.288 12.4C323.398 11.44 324.928 10.96 326.878 10.96C328.198 10.96 329.383 11.185 330.433 11.635C331.513 12.055 332.413 12.73 333.133 13.66C333.883 14.56 334.453 15.73 334.843 17.17C335.263 18.58 335.473 20.275 335.473 22.255C335.473 24.145 335.203 25.855 334.663 27.385C334.153 28.915 333.403 30.205 332.413 31.255C331.453 32.305 330.268 33.115 328.858 33.685C327.478 34.255 325.903 34.54 324.133 34.54C323.113 34.54 322.303 34.465 321.703 34.315C321.133 34.195 320.518 33.97 319.858 33.64V40.165C320.338 40.225 320.818 40.33 321.298 40.48C321.778 40.66 322.288 40.915 322.828 41.245V43ZM324.268 14.56C323.248 14.56 322.333 14.92 321.523 15.64C320.743 16.36 320.188 17.47 319.858 18.97V30.94C320.338 31.3 320.848 31.57 321.388 31.75C321.928 31.9 322.633 31.975 323.503 31.975C325.213 31.975 326.473 31.15 327.283 29.5C328.093 27.85 328.498 25.435 328.498 22.255C328.498 19.795 328.183 17.905 327.553 16.585C326.953 15.235 325.858 14.56 324.268 14.56ZM338.28 22.75C338.28 20.92 338.55 19.285 339.09 17.845C339.66 16.375 340.455 15.13 341.475 14.11C342.525 13.09 343.785 12.31 345.255 11.77C346.725 11.23 348.39 10.96 350.25 10.96C352.35 10.96 354.15 11.26 355.65 11.86C357.18 12.43 358.425 13.24 359.385 14.29C360.375 15.31 361.095 16.555 361.545 18.025C361.995 19.465 362.22 21.04 362.22 22.75C362.22 24.58 361.95 26.23 361.41 27.7C360.87 29.14 360.075 30.37 359.025 31.39C358.005 32.41 356.745 33.19 355.245 33.73C353.775 34.27 352.11 34.54 350.25 34.54C348.21 34.54 346.44 34.255 344.94 33.685C343.44 33.085 342.195 32.275 341.205 31.255C340.215 30.205 339.48 28.96 339 27.52C338.52 26.05 338.28 24.46 338.28 22.75ZM345.255 22.75C345.255 24.1 345.33 25.345 345.48 26.485C345.66 27.595 345.96 28.54 346.38 29.32C346.8 30.1 347.37 30.715 348.09 31.165C348.81 31.585 349.74 31.795 350.88 31.795C351.54 31.795 352.14 31.645 352.68 31.345C353.22 31.015 353.685 30.505 354.075 29.815C354.465 29.095 354.75 28.165 354.93 27.025C355.14 25.855 355.245 24.43 355.245 22.75C355.245 21.37 355.155 20.125 354.975 19.015C354.825 17.905 354.54 16.96 354.12 16.18C353.73 15.4 353.19 14.8 352.5 14.38C351.81 13.93 350.94 13.705 349.89 13.705C349.11 13.705 348.435 13.87 347.865 14.2C347.295 14.5 346.815 15.01 346.425 15.73C346.035 16.42 345.735 17.35 345.525 18.52C345.345 19.66 345.255 21.07 345.255 22.75Z" fill="#FDEFC8"/>
</svg>
